<?xml version="1.0" encoding="utf-8"?>
<!-- Generator: Adobe Illustrator 26.3.1, SVG Export Plug-In . SVG Version: 6.00 Build 0)  -->
<svg version="1.1" id="Capa_1" xmlns="http://www.w3.org/2000/svg" xmlns:xlink="http://www.w3.org/1999/xlink" x="0px" y="0px"
	 viewBox="0 0 296.2 296.2" style="enable-background:new 0 0 296.2 296.2;" xml:space="preserve">
<style type="text/css">
	.st0{fill:#FA5405;}
</style>
<g>
	<path class="st0" d="M148.1,50.1c40.1,0,80.2,0,120.4,0c10,0,17.3,7.3,17.3,17.2c0,29.2,0,58.3,0,87.5c0,10.1-7.3,17.4-17.3,17.4
		c-4.8,0-9.7,0-14.5,0c-1.2,0-1.6,0.4-1.5,1.5c0.1,0.7,0,1.3,0,2c-0.1,2.2-1.6,4-3.8,4.3c-0.6,0.1-1.2,0.1-1.8,0.1
		c-23.2,0-46.5,0-69.7,0c-0.8,0-1.5,0-2.3-0.1c-2.3-0.3-3.9-2.3-3.8-4.6c0.1-2.3,1.8-4.2,4.1-4.3c0.8-0.1,1.5,0,2.3,0
		c21,0,42,0,63,0c3,0,3,0,3-3.1c0-2.7-0.8-5-2.7-6.9c-2-2.1-4.5-3.1-7.4-3.1c-19,0-38,0-57,0c-2.9,0-4.8-1.6-5-4.2
		c-0.2-2.2,1.3-4.2,3.5-4.7c0.7-0.1,1.4-0.2,2.1-0.2c18.6,0,37.2,0,55.8,0c9.3,0,15.9,4.7,19,13.4c0.2,0.6,0.5,0.9,1.1,0.9
		c5.5,0,11,0.1,16.5-0.1c4-0.1,7.2-3.4,7.3-7.4c0.1-1.6,0-3.3,0-4.9c0-27.6-0.1-55.3,0.1-82.9c0-4.8-3.3-8.9-8.8-8.7
		c-4.6,0.2-9.2,0.1-13.8,0c-1.5,0-1.8,0.4-1.8,1.9c0.1,9.8,0,19.7,0,29.5c0,3.5-1.7,5.2-5.3,5.2c-66.1,0-132.1,0-198.2,0
		c-3.5,0-5.2-1.7-5.2-5.3c0-9.9,0-19.9,0-29.8c0-1.2-0.4-1.5-1.5-1.5c-4.8,0.1-9.6,0-14.4,0c-5.2,0-8.3,3.2-8.3,8.4
		c0,28.9,0,57.7,0,86.6c0,0.5,0,1,0,1.5c-0.3,2.5-2.4,4.4-4.8,4.2c-2.5-0.2-4.3-2.1-4.3-4.7c0-29.7,0-59.3,0-89
		c0-8.8,7.7-16.1,16.7-16.1C67.4,50.1,107.8,50.1,148.1,50.1z M147.9,86.6c31.3,0,62.6,0,93.9,0c1.3,0,1.6-0.3,1.6-1.6
		c-0.1-8.2-0.1-16.3,0-24.5c0-1.1-0.3-1.4-1.4-1.4c-62.5,0-125.1,0-187.6,0c-1.3,0-1.5,0.4-1.5,1.6c0,8.1,0.1,16.2,0,24.3
		c0,1.4,0.4,1.6,1.7,1.6C85.6,86.6,116.8,86.6,147.9,86.6z"/>
	<path class="st0" d="M56.9,204.6c-4.1,2.3-8.2,4.7-12.3,7c-0.6,0.3-1.1,0.7-1.7,1c-2.4,1.2-5,0.5-6.2-1.7c-1.3-2.2-0.6-4.9,1.7-6.2
		c4.1-2.4,8.2-4.7,12.3-7.1c0.8-0.5,1.6-0.9,2.6-1.5c-3.4-0.8-6.4-1.6-9.5-2.4c-2.1-0.5-4.3-1-6.4-1.6c-2.8-0.7-4.3-3-3.7-5.6
		c0.6-2.5,3-3.9,5.7-3.3c8.1,1.9,16.1,3.9,24.1,5.9c0.7,0.2,1.2,0.3,1.9-0.1c7.4-4.3,14.9-8.6,22.3-12.9c0.1-0.1,0.2-0.2,0.4-0.4
		c-4.6-2.7-9.2-5.3-13.7-7.9c-3.2-1.9-6.4-3.7-9.6-5.6c-0.7-0.4-1.3-0.5-2-0.3c-7.5,1.9-15,3.7-22.5,5.6c-0.9,0.2-1.9,0.5-2.9,0.4
		c-2.1-0.4-3.7-2.1-3.8-4.2c-0.1-2.4,1.2-4.2,3.6-4.8c4.3-1.1,8.6-2.1,12.9-3.2c0.7-0.2,1.4-0.2,2.1-0.7c-4.5-2.6-8.9-5.2-13.4-7.7
		c-1.4-0.8-2.5-1.8-2.7-3.5c-0.3-1.9,0.3-3.5,1.9-4.5c1.6-1.1,3.3-1.1,4.9-0.2c4.3,2.5,8.6,5,13,7.5c0.4,0.2,0.8,0.6,1.4,0.6
		c0,0.1,0.1,0.1,0.1,0.2c0.2-0.1,0.1-0.2,0-0.3c-1.4-5-2.9-10.1-4.3-15.1c-1-3.6,1.4-6.7,5-6.2c2.1,0.3,3.2,1.7,3.8,3.7
		c2,7,4.2,14,6,21.1c0.7,2.6,2,4.2,4.3,5.5c6.4,3.5,12.7,7.3,19.1,10.9c0.5,0.3,1,0.5,1.4,0.8c0.4-0.5,0.2-0.9,0.2-1.4
		c0-8.4,0-16.8,0-25.2c0-1-0.3-1.6-0.9-2.3c-5.6-5.8-11.2-11.7-16.8-17.5c-1.5-1.6-1.8-3.5-0.9-5.3c0.8-1.6,2.5-2.6,4.4-2.5
		c1.3,0.1,2.3,0.7,3.2,1.6c3.3,3.4,6.6,6.8,9.9,10.2c0.3,0.3,0.5,0.8,1.3,1c0-3.4,0-6.7,0-10.1c0-2.1,0-4.3,0-6.4
		c0-2.9,1.8-4.9,4.5-4.9s4.5,2,4.5,4.8c0,5.5,0,11,0,16.5c0.6,0.1,0.8-0.4,1-0.6c3.3-3.4,6.6-6.9,10-10.3c2.1-2.2,4.8-2.4,6.8-0.5
		s1.9,4.6-0.2,6.9c-5.5,5.7-11,11.5-16.5,17.2c-0.7,0.7-1,1.4-1,2.4c0,8.4,0,16.8,0,25.2c0,1.1,0.1,1.5,1.3,0.8
		c7.2-4.2,14.5-8.4,21.8-12.6c0.8-0.5,1.1-1.1,1.3-1.9c2.2-7.8,4.5-15.5,6.7-23.3c0.8-2.9,3.2-4.4,5.7-3.6c2.6,0.7,3.8,3.2,3,6.2
		c-1.4,5-2.9,10-4.3,15c-0.1,0.1-0.1,0.3,0,0.4c0,0,0.1-0.1,0.2-0.2c3.9-1.9,7.5-4.3,11.3-6.4c1.2-0.7,2.4-1.5,3.7-2.1
		c2.3-1.2,5-0.4,6.2,1.8s0.5,4.8-1.7,6.1c-4.4,2.6-8.8,5.1-13.2,7.7c-0.4,0.2-0.9,0.4-1.3,1c4,1,7.9,2,11.9,2.9
		c1.2,0.3,2.4,0.5,3.5,0.9c2.3,0.8,3.6,3.2,3,5.5c-0.6,2.4-3,3.8-5.4,3.3c-7.8-1.9-15.6-3.8-23.4-5.7c-0.6-0.2-1.2-0.3-1.9,0
		c-7.9,4.6-15.8,9.1-23.8,13.7c1.3,0.7,2.4,1.4,3.5,2.1c6.3,3.6,12.6,7.3,18.9,10.9c0.8,0.5,1.5,0.6,2.4,0.3
		c7.8-2,15.6-3.9,23.4-5.8c1.4-0.4,2.8-0.5,4.1,0.3c1.7,1,2.5,2.5,2.3,4.5c-0.2,1.9-1.5,3.4-3.6,3.9c-5.2,1.3-10.4,2.6-16,3.9
		c0.7,0.4,1.1,0.7,1.6,1c4.6,2.7,9.3,5.3,13.9,8c1.8,1.1,2.6,2.8,2.3,4.8c-0.3,1.8-1.7,3.3-3.4,3.7c-1.4,0.3-2.6-0.1-3.8-0.7
		c-4.3-2.5-8.6-5-13-7.5c-0.5-0.3-0.9-0.5-1.6-0.9c1.4,4.7,2.7,9.2,4,13.7c0.1,0.5,0.3,1,0.4,1.5c0.6,2.6-0.7,5-3.1,5.7
		c-2.5,0.7-4.9-0.7-5.7-3.3c-1.3-4.3-2.5-8.6-3.7-12.9c-1-3.4-2-6.8-3-10.3c-0.2-0.7-0.5-1.2-1.1-1.5c-7.6-4.4-15.2-8.8-22.9-13.2
		c-0.1,0-0.2,0-0.3-0.1c-0.3,0.4-0.2,0.9-0.2,1.3c0,8.2,0,16.4,0,24.6c0,1,0.3,1.6,0.9,2.3c5.6,5.8,11.2,11.6,16.7,17.4
		c2,2.1,2,4.8,0.1,6.7c-1.9,1.8-4.7,1.7-6.7-0.4c-0.3-0.3-0.5-0.5-0.7-0.8c-3.3-3.5-6.7-7-10-10.5c-0.5,0.3-0.3,0.8-0.3,1.1
		c0,5.3,0,10.6,0,15.9c0,2.1-1.5,3.9-3.4,4.3c-2,0.4-4-0.4-5-2.1c-0.5-0.9-0.6-1.8-0.6-2.8c0-5,0-10,0-15c0-0.4,0-0.9,0-1.3
		c-0.6-0.1-0.8,0.4-1,0.6c-3.3,3.4-6.5,6.8-9.8,10.1c-2.3,2.3-5,2.6-7,0.7c-2-1.9-1.9-4.7,0.4-7c5.5-5.7,10.9-11.4,16.4-17.1
		c0.7-0.7,1-1.4,1-2.4c0-8.6,0-17.1,0-25.6c-0.5-0.2-0.8,0.2-1.1,0.3c-7.3,4.2-14.5,8.4-21.8,12.6c-0.9,0.5-1.4,1.2-1.7,2.2
		c-2.1,7.5-4.3,15.1-6.5,22.6c-0.7,2.5-2.5,3.8-4.8,3.6c-2.2-0.2-3.9-1.8-4.2-4c-0.1-0.9,0.1-1.7,0.4-2.5c1.3-4.6,2.7-9.3,4-13.9
		c0-0.1,0-0.2,0-0.4C57.1,204.5,57,204.5,56.9,204.6z"/>
	<path class="st0" d="M175.6,221.8c0-6.5,0-12.9,0-19.4c0-3.1,1.8-5.1,4.6-5.1c2.7,0,4.5,2,4.5,5c0,12.9,0,25.8,0,38.6
		c0,2-0.7,3.6-2.5,4.5c-1.6,0.8-3.2,0.7-4.6-0.3c-1.5-1-2-2.5-2-4.2C175.6,234.6,175.6,228.2,175.6,221.8z"/>
	<path class="st0" d="M207.4,212.3c0,3.4,0,6.8,0,10.2c0,2.8-1.9,4.9-4.5,4.9s-4.6-2-4.6-4.9c0-6.8,0-13.6,0-20.5
		c0-2.9,1.9-4.9,4.5-4.9c2.7,0,4.6,2,4.6,5C207.4,205.6,207.4,209,207.4,212.3z"/>
	<path class="st0" d="M239.4,126.9c2.8,0,5.5,0,8.3,0s4.7,1.9,4.7,4.5c0,2.6-1.9,4.5-4.7,4.5c-5.5,0-11,0-16.5,0
		c-2.8,0-4.7-2-4.7-4.6c0-2.5,1.9-4.4,4.7-4.5C233.9,126.8,236.7,126.9,239.4,126.9z"/>
	<path class="st0" d="M239.5,107.7c2.7,0,5.4,0,8.1,0c2.8,0,4.8,1.9,4.8,4.6c0,2.6-2,4.5-4.8,4.5c-5.4,0-10.9,0-16.3,0
		c-2.8,0-4.8-2-4.8-4.6s2-4.5,4.8-4.5S236.8,107.7,239.5,107.7z"/>
	<path class="st0" d="M230,204.9c0,1.1,0,2.2,0,3.4c-0.1,2.5-2,4.3-4.4,4.4c-2.5,0.1-4.6-1.7-4.7-4.3c-0.1-2.3-0.1-4.6,0-6.9
		c0.1-2.5,2.1-4.3,4.6-4.3s4.4,1.9,4.4,4.5C230.1,202.8,230,203.9,230,204.9z"/>
	<path class="st0" d="M56.9,204.6c0.1-0.1,0.2-0.1,0.3-0.2c0,0.1,0,0.2,0,0.4C57,204.7,57,204.7,56.9,204.6z"/>
	<path class="st0" d="M137.7,147.1c-0.1,0.1-0.2,0.2-0.2,0.2c-0.2-0.1-0.1-0.2,0-0.4C137.6,147,137.6,147.1,137.7,147.1z"/>
	<path class="st0" d="M57.3,147c0.1,0.1,0.2,0.2,0,0.3c0-0.1-0.1-0.1-0.1-0.2C57.3,147.1,57.3,147.1,57.3,147z"/>
</g>
</svg>
