<?xml version="1.0" encoding="utf-8"?>
<!-- Generator: Adobe Illustrator 26.3.1, SVG Export Plug-In . SVG Version: 6.00 Build 0)  -->
<svg version="1.1" id="Capa_1" xmlns="http://www.w3.org/2000/svg" xmlns:xlink="http://www.w3.org/1999/xlink" x="0px" y="0px"
	 viewBox="0 0 296.2 296.2" style="enable-background:new 0 0 296.2 296.2;" xml:space="preserve">
<style type="text/css">
	.st0{fill:#FA5405;}
</style>
<g>
	<path class="st0" d="M32.7,284.3c0-90.1,0.1-180.3-0.2-270.4c0-7.6,1.1-10.1,9.6-10c49,0.5,98,0.2,147.1,0.2
		c5.8,6,8.1,12.9,7.9,21.6c-0.6,28.3,0.1,56.5-0.4,84.8c-0.2,9,1.2,13.1,11.5,12.1c12.3-1.1,24.8-0.3,37.2-0.4
		c12.6-0.1,18.1,4.7,18.2,17.4c0.2,39.8,0.1,79.7,0.1,119.5c0,11.7-5.9,17.3-17.3,17.4c-13.7,0.1-27.4-0.1-41,0.2
		c-2.8,0.1-7.2-2.5-8.4,2.9c-2.8,12.2-12.1,12.5-22,12.5c-39.7-0.1-79.5-0.3-119.2,0.1C46.6,292.4,39.2,290.5,32.7,284.3z
		 M186.6,191.7c0-27-0.3-53.9,0.2-80.9c0.1-7.2-1.9-9.3-9.1-9.2c-41.8,0.3-83.7,0.3-125.5,0c-7-0.1-9.3,1.6-9.3,9
		c0.3,53.5,0.3,107,0,160.5c-0.1,8.7,3,10.8,11.1,10.7c40.6-0.3,81.1-0.4,121.7,0.1c9.5,0.1,11.3-3.4,11.2-11.9
		C186.3,243.9,186.6,217.8,186.6,191.7z M113.5,91.5c21.8,0,43.5-0.2,65.3,0.1c6.1,0.1,8-1.5,7.9-7.8c-0.4-20.1-0.4-40.2,0-60.3
		c0.2-7.6-2.9-9.3-9.8-9.3c-41.4,0.2-82.8,0.2-124.2,0c-6.9,0-10,1.7-9.9,9.3c0.4,20.1,0.4,40.2,0,60.3c-0.1,6.3,2,7.8,8,7.7
		C71.7,91.3,92.6,91.5,113.5,91.5z M253.3,213.9c0-13.7-0.4-27.4,0.2-41.1c0.3-7-1.4-9.8-9-9.4c-12.8,0.6-25.6,0.2-38.5,0.2
		c-5.2,0-9.6-0.8-9.5,7.5c0.1,8,3.9,7.5,9.3,7.6c4.2,0.1,8.5,0.9,12.4,2.3c17.8,6.6,27.5,23.6,24.8,42.9
		c-2.5,18.1-17.9,31.4-37.3,32.6c-3.4,0.2-9-3.1-9.1,4.8c0,7.8,5.6,4.9,9,5c12.4,0.3,24.8-0.2,37.2,0.2c7.7,0.3,10.8-2.2,10.5-10.2
		C252.9,242.1,253.3,228,253.3,213.9z M204.9,189.6c-5.4-0.6-7.9,1.8-7.7,8c0.3,13.2,0.3,26.4,0,39.5c-0.2,6.2,2.4,8.3,8.2,8.2
		c13.8-0.2,26.6-13,27-27.3C232.9,203.5,219.9,189.8,204.9,189.6z M224.1,153.2c6.8,0,13.6-0.5,20.4,0.1c7.4,0.7,9.6-2,9-9.2
		c-0.6-5.9,1-12.1-8.7-11.6c-13.6,0.6-27.2,0.6-40.8,0c-7-0.3-6.8,3.1-7.3,8.4c-0.9,9.6,1.7,14.1,12.1,12.5
		C213.8,152.6,219,153.2,224.1,153.2z"/>
	<path class="st0" d="M63.5,140.3c0,6.8,0,13.6,0,20.4c0,3.6-0.4,7.3-4.8,7.6c-4.4,0.4-5.5-3-5.5-6.8c0-14,0-28,0-42
		c0-3.7,0.9-7.2,5.3-7s4.9,3.8,4.9,7.4C63.5,126.7,63.5,133.5,63.5,140.3z"/>
	<path class="st0" d="M53.3,52.8c0-7.2,0-14.4,0-21.7c0-3.3,1.3-6,4.9-6.1c3.7-0.1,5.2,2.5,5.2,5.9c0.1,14.4,0.1,28.9,0.1,43.3
		c0,3.8-1.2,7-5.6,6.7c-3.5-0.3-4.6-3.1-4.6-6.5C53.3,67.2,53.3,60,53.3,52.8z"/>
</g>
</svg>
