<?xml version="1.0" encoding="utf-8"?>
<!-- Generator: Adobe Illustrator 26.3.1, SVG Export Plug-In . SVG Version: 6.00 Build 0)  -->
<svg version="1.1" id="Layer_1" xmlns="http://www.w3.org/2000/svg" xmlns:xlink="http://www.w3.org/1999/xlink" x="0px" y="0px"
	 viewBox="0 0 500 500" style="enable-background:new 0 0 500 500;" xml:space="preserve">
<style type="text/css">
	.st0{fill:#FA5405;}
</style>
<path class="st0" d="M174.7,455.4c-20.4,1-20.4,1-27.4-16.3c-2.6-6.4-5.3-12.8-7.9-19.2c-11.8-28.9-11.8-28.7-43-28
	c-5.8,0.1-8.6,2-10.9,7.2c-6.1,14.2-12.9,28.1-19.4,42.1c-7.8,16.9-7.8,16.9-27.4,12.9c9.4-20.4,18.7-40.7,28.3-61.6
	c-20.6-1.1-22.3-2.4-25.1-22c-4.7-33.5-9.1-67-13.5-100.6c-1.5-11.4,3.6-19.4,12.9-19.8c10.5-0.5,15.3,5.6,16.4,15.7
	c1.6,14.2,3.9,28.3,5.3,42.5c0.8,7.8,3.3,10.8,11.8,10.6c24.9-0.7,49.8-0.2,74.7-0.3c5.4,0,10.4,0.9,10.5,7.3
	c0.1,6.5-4.8,7.6-10.2,7.5c-9.4-0.1-18.8,0-28.2,0c-3.6,0-7-0.4-8.7,4.4c-2.3,6.5-5.6,12.6-8.5,18.9c-2.5,5.3,0,6.1,4.7,6.1
	c14.3-0.2,28.6-0.1,42.9-0.1c15.8,0,22.4,4,22.9,14c0.5,10.2-6.3,14.9-22.7,15.6c-0.4,0-0.8,0.3-2.6,0.9
	C158.2,414.1,166.3,434.5,174.7,455.4z M89.3,333.4c-23.7-1-23.7-1-19.8,22.6c0.5,3.1-0.2,6.7,4.8,6.7c4,0,6.7-0.6,8.3-5.1
	c2.8-7.5,6.4-14.8,10.2-23.1C90.8,333.8,90.1,333.4,89.3,333.4z"/>
<path class="st0" d="M28.2,171.6c34.2-53.9,87.3-77.2,146.5-90.5c16.3-3.7,33-5.8,49.7-6.5c7.8-0.4,10.8-2.6,9.8-10.5
	c-0.8-6.2,0-12.3,5.6-16.6c4.6-3.5,9.6-4.4,14.9-1.9c6.2,3,9.6,8.1,8.7,14.7c-1.6,11,2.8,13.8,13.5,14.6
	c51.5,3.7,100.4,16.6,143.8,45.9c17.4,11.8,32.3,26.1,43.8,43.8c3.7,5.7,6.8,11.1,3.3,18.1c-3.7,7.3-10.1,8.5-17.5,8.4
	c-58.8-0.1-117.6,0.1-176.4-0.3c-8.7-0.1-10.8,2.3-10.6,10.7c0.7,21.2,0.6,42.5,0,63.7c-0.2,7.8,2.1,9.4,9.5,9.3
	c24.1-0.5,48.2-0.2,72.3-0.2c14.4,0,21.1,4.6,21.3,14.4c0.2,10.1-6.9,15-21.9,15c-23.7,0-47.4,0.3-71-0.2
	c-7.9-0.2-10.2,1.8-10.1,9.9c0.4,43.3-0.1,86.5,0.5,129.8c0.1,10-2,13.3-12.4,12.7c-17.2-1-17.2-0.2-17.2-17.3
	c0-41.6-0.2-83.3,0.2-124.9c0.1-7.7-1.6-10.4-9.9-10.2c-24.5,0.6-49,0.3-73.5,0.2c-13,0-19.7-5.2-19.7-14.7
	c0-9.6,6.7-14.6,19.8-14.6c24.5-0.1,49-0.4,73.5,0.2c8.5,0.2,9.9-2.8,9.7-10.3c-0.5-21.2-0.6-42.5,0.1-63.7
	c0.3-8.6-2.8-9.7-10.3-9.7c-58.4,0.3-116.8,0-175.2,0.3c-9,0-15.9-2.1-20.6-10C28.2,178.1,28.2,174.9,28.2,171.6z M423.4,161.3
	c-87.1-81.4-278-72.9-348.1,0C191.1,161.3,306.3,161.3,423.4,161.3z"/>
<path class="st0" d="M347.6,393.2c-1.9-0.7-2.2-0.9-2.6-0.9c-16.4-0.7-23.2-5.4-22.7-15.6c0.5-9.9,7.1-14,22.9-14
	c14.3,0,28.6-0.1,42.9,0.1c4.7,0.1,7.2-0.8,4.7-6.1c-2.9-6.3-6.2-12.4-8.5-18.9c-1.7-4.8-5.1-4.4-8.7-4.4c-9.4,0-18.8-0.1-28.2,0
	c-5.4,0.1-10.4-1.1-10.2-7.5c0.1-6.4,5.2-7.3,10.5-7.3c24.9,0.1,49.8-0.4,74.7,0.3c8.5,0.2,11.1-2.8,11.8-10.6
	c1.4-14.2,3.8-28.3,5.3-42.5c1.1-10.1,5.8-16.2,16.4-15.7c9.3,0.4,14.4,8.4,12.9,19.8c-4.4,33.5-8.8,67.1-13.5,100.6
	c-2.8,19.7-4.5,21-25.1,22c9.6,20.8,18.9,41.2,28.3,61.6c-19.5,4.1-19.6,4.1-27.4-12.9c-6.5-14-13.2-27.9-19.4-42.1
	c-2.3-5.2-5.1-7.1-10.9-7.2c-31.1-0.7-31.1-0.9-43,28c-2.6,6.4-5.3,12.8-7.9,19.2c-7,17.2-7,17.2-27.4,16.3
	C331,434.5,339.2,414.1,347.6,393.2z M404.4,334.6c3.7,8.4,7.4,15.6,10.2,23.1c1.6,4.5,4.3,5.1,8.3,5.1c5.1,0,4.3-3.6,4.8-6.7
	c3.9-23.7,3.9-23.7-19.8-22.6C407.3,333.4,406.6,333.8,404.4,334.6z"/>
</svg>
