<?xml version="1.0" encoding="utf-8"?>
<!-- Generator: Adobe Illustrator 26.3.1, SVG Export Plug-In . SVG Version: 6.00 Build 0)  -->
<svg version="1.1" id="Capa_1" xmlns="http://www.w3.org/2000/svg" xmlns:xlink="http://www.w3.org/1999/xlink" x="0px" y="0px"
	 viewBox="0 0 228.8 228.8" style="enable-background:new 0 0 228.8 228.8;" xml:space="preserve">
<style type="text/css">
	.st0{fill:#FA5405;}
</style>
<g>
	<path class="st0" d="M184.5,161.2c-2.4-3.7-19.7-30.8-34.6-45.1c-12.4-11.9-30.9-12.2-33-12.2c-0.2,0-0.4,0-0.6,0h-4.5
		c-2,0-19.8,0.3-32.8,12c-16,14.5-33.8,43.6-35,45.7c-9.4,14.9-15.2,24.5-15.2,35.3c0,19.4,14.2,31.9,36.2,31.9h98.7
		c22,0,36.1-12.5,36.1-31.9c0-10.8-5.8-20.5-15.2-35.4C184.6,161.4,184.6,161.3,184.5,161.2z M163.8,213.8H65.1
		c-7.9,0-21.2-2.2-21.2-16.9c0-6.3,4.1-13.5,12.9-27.3c0,0,0.1-0.1,0.1-0.1c0.2-0.3,17.6-29.1,32.3-42.3c8.9-8,22.6-8.2,22.7-8.2
		h5.1c0.1,0,0.3,0,0.4,0c2.4,0.1,14.7,0.9,22.2,8c14.3,13.8,32.3,42.3,32.5,42.6c0.1,0.1,0.2,0.3,0.3,0.4
		c9.3,14.7,12.6,21,12.6,26.9C184.9,210.9,173.4,213.8,163.8,213.8z"/>
	<path class="st0" d="M78.2,85.7c16.9,0,30.2-18.8,30.2-42.9c0-24-13.3-42.9-30.2-42.9C61.3,0,48,18.8,48,42.9
		C48,66.9,61.3,85.7,78.2,85.7z M78.2,15c7.2,0,15.2,11.4,15.2,27.9c0,16.4-8,27.9-15.2,27.9S63,59.3,63,42.9C63,26.4,71,15,78.2,15
		z"/>
	<path class="st0" d="M38.7,137.3c3,0,5.8-0.6,8.4-1.8c13.2-6.1,16.8-25.3,8.3-43.7c-6.6-14.3-18.8-23.8-30.3-23.8
		c-3,0-5.8,0.6-8.4,1.8C3.5,75.8-0.2,95,8.3,113.5C14.9,127.7,27.1,137.3,38.7,137.3L38.7,137.3z M22,107.2c-5.1-11-3.6-21.7,1-23.8
		c0.6-0.3,1.3-0.4,2.1-0.4c4.7,0,12.2,5.3,16.7,15.1c5.1,11,3.6,21.7-1,23.8c-0.6,0.3-1.3,0.4-2.1,0.4C33.9,122.3,26.5,117,22,107.2
		z"/>
	<path class="st0" d="M150.6,85.7c16.9,0,30.2-18.8,30.2-42.9c0-24-13.3-42.9-30.2-42.9c-16.9,0-30.2,18.8-30.2,42.9
		C120.4,66.9,133.7,85.7,150.6,85.7z M150.6,15c7.2,0,15.2,11.4,15.2,27.9c0,16.4-8,27.9-15.2,27.9c-7.2,0-15.2-11.4-15.2-27.9
		C135.4,26.4,143.4,15,150.6,15z"/>
	<path class="st0" d="M212.1,69.7c-2.6-1.2-5.4-1.8-8.4-1.8c-11.5,0-23.7,9.6-30.3,23.8c-8.5,18.4-4.9,37.6,8.4,43.8
		c2.6,1.2,5.4,1.8,8.4,1.8c11.6,0,23.7-9.6,30.3-23.8C229,95.1,225.3,75.8,212.1,69.7z M206.8,107.2c-4.5,9.8-12,15.1-16.7,15.1
		c-0.8,0-1.5-0.1-2.1-0.4c-4.7-2.2-6.1-12.8-1-23.8c4.5-9.8,12-15.1,16.7-15.1c0.8,0,1.5,0.1,2.1,0.4
		C210.5,85.5,211.9,96.2,206.8,107.2z"/>
</g>
</svg>
