<?xml version="1.0" encoding="utf-8"?>
<!-- Generator: Adobe Illustrator 26.3.1, SVG Export Plug-In . SVG Version: 6.00 Build 0)  -->
<svg version="1.1" id="Layer_1" xmlns="http://www.w3.org/2000/svg" xmlns:xlink="http://www.w3.org/1999/xlink" x="0px" y="0px"
	 viewBox="0 0 144 144" style="enable-background:new 0 0 144 144;" xml:space="preserve">
<style type="text/css">
	.st0{fill:#E8602B;}
</style>
<g>
	<path class="st0" d="M71.9,5.5c11.3,18.5,28.8,23,48.3,23.4c2.2,0,2.7,0.6,2.7,2.7c-0.1,18.4,0.1,36.8-0.1,55.2
		c-0.1,7.5-3.2,14.1-7.4,20.2c-10.5,15-25.4,24.1-41.8,31.2c-1,0.4-1.9,0.5-2.9,0c-16.3-7-31.2-16.1-41.6-30.9
		c-5.2-7.4-8-15.5-7.8-24.7c0.3-17,0.1-34,0-50.9c0-2.4,0.7-2.8,2.9-2.8c10.3,0.1,20.2-1.7,29.5-6.1C61.4,19.1,67.5,13.5,71.9,5.5z
		 M27,62.3c0,6.6,0.3,13.2-0.1,19.8c-0.5,9.5,3,17.4,8.7,24.6c7,8.9,15.9,15.6,25.9,20.7c12.9,6.7,8,6.5,20.8,0.2
		c2.7-1.3,5.2-2.9,7.6-4.6c8.2-5.4,15.6-11.6,21-19.8c4-6.1,6.3-12.6,6.2-20.2c-0.3-15.1-0.2-30.2,0-45.3c0-2.6-0.7-3.2-3.3-3.4
		c-13.6-0.9-26.2-4.5-36.9-13.4c-1.8-1.5-3.3-4.3-5-4.4c-1.6-0.1-3.2,2.8-5,4.3c-10.6,9.1-23.3,12.7-36.8,13.5
		c-2.6,0.2-3.3,0.9-3.2,3.4C27.1,45.9,27,54.1,27,62.3z"/>
	<path class="st0" d="M72.2,69.5c5.1,0,10.1,0.1,15.2,0c1.9,0,2.5,0.5,2.4,2.4c-0.1,7.2-0.1,14.3,0,21.5c0.1,2.7-1.1,4.4-3.1,5.8
		c-7.5,5.4-22,5.4-29.5,0c-2-1.4-3.1-3.2-3.1-5.8c0.1-7.1,0.1-14.1,0-21.2c0-2.2,0.7-2.8,2.8-2.7C62.1,69.6,67.2,69.5,72.2,69.5z
		 M72.1,92.5c2.1,0.4,2.7-0.3,2.2-2.5c-0.5-2.2-1.2-4.5,0.9-6.7c1.1-1.2,0.6-3.2-0.9-4.4c-1.5-1.2-3.1-1.1-4.5,0.1
		c-1.5,1.2-1.9,3.2-0.8,4.4c1.9,2.1,1.4,4.3,0.8,6.4C69,92.4,69.9,92.9,72.1,92.5z"/>
	<path class="st0" d="M84.2,62.3c0,1-0.1,2,0,3c0.1,1.9-0.2,2.9-2.6,2.9c-2.4,0-2.8-1-2.7-2.9c0.1-1.9,0.2-3.7,0.1-5.6
		c-0.1-4-3.2-7.2-6.8-7.1c-3.7,0-6.7,3.1-6.8,7.1c0,2.1-0.1,4.2,0.1,6.3c0.2,3.2-2.2,1.9-3.6,2.1c-2,0.4-2.1-0.8-1.9-2.3
		c0.3-3,0.3-5.9,0.8-8.9c0.8-5.7,5.9-9.9,11.6-9.7c6.1,0.2,11,4.5,11.7,10.2c0.2,1.6,0.2,3.3,0.3,4.9C84.3,62.3,84.2,62.3,84.2,62.3
		z"/>
</g>
</svg>
